<?xml version="1.0" encoding="UTF-8" standalone="no"?>
<!-- Created with Inkscape (http://www.inkscape.org/) -->

<svg
   width="48"
   height="48"
   viewBox="0 0 12.7 12.7"
   version="1.1"
   id="svg1"
   xml:space="preserve"
   inkscape:version="1.4.3 (0d15f75042, 2025-12-25)"
   sodipodi:docname="icon.svg"
   xmlns:inkscape="http://www.inkscape.org/namespaces/inkscape"
   xmlns:sodipodi="http://sodipodi.sourceforge.net/DTD/sodipodi-0.dtd"
   xmlns:xlink="http://www.w3.org/1999/xlink"
   xmlns="http://www.w3.org/2000/svg"
   xmlns:svg="http://www.w3.org/2000/svg"><sodipodi:namedview
     id="namedview1"
     pagecolor="#ffffff"
     bordercolor="#000000"
     borderopacity="0.25"
     inkscape:showpageshadow="2"
     inkscape:pageopacity="0.0"
     inkscape:pagecheckerboard="0"
     inkscape:deskcolor="#d1d1d1"
     inkscape:document-units="mm"
     inkscape:zoom="15.503104"
     inkscape:cx="7.1921082"
     inkscape:cy="28.865188"
     inkscape:window-width="2648"
     inkscape:window-height="1418"
     inkscape:window-x="0"
     inkscape:window-y="0"
     inkscape:window-maximized="1"
     inkscape:current-layer="layer5" /><defs
     id="defs1"><linearGradient
       id="linearGradient8"
       inkscape:collect="always"><stop
         style="stop-color:#f08054;stop-opacity:1;"
         offset="0"
         id="stop8" /><stop
         style="stop-color:#fbe7c9;stop-opacity:1;"
         offset="1"
         id="stop9" /></linearGradient><inkscape:path-effect
       effect="mirror_symmetry"
       start_point="6.5770488,4.2640746"
       end_point="6.5770488,2.575309"
       center_point="6.5770488,3.4196918"
       id="path-effect5"
       is_visible="true"
       lpeversion="1.2"
       lpesatellites=""
       mode="free"
       discard_orig_path="false"
       fuse_paths="false"
       oposite_fuse="false"
       split_items="false"
       split_open="false"
       link_styles="false" /><linearGradient
       inkscape:collect="always"
       xlink:href="#linearGradient8"
       id="linearGradient9"
       x1="1.5889814"
       y1="1.5475636"
       x2="11.101042"
       y2="11.059624"
       gradientUnits="userSpaceOnUse" /></defs><g
     inkscape:groupmode="layer"
     id="layer5"
     inkscape:label="Layer 4"><rect
       style="fill:url(#linearGradient9);fill-opacity:1;stroke:none;stroke-width:0.3;stroke-linecap:round;stroke-miterlimit:4;stroke-dasharray:none;stroke-opacity:1;paint-order:normal"
       id="rect7"
       width="13.452087"
       height="13.402387"
       x="-0.38103202"
       y="-0.39759862"
       rx="0.2" /></g><g
     inkscape:groupmode="layer"
     id="layer2"
     inkscape:label="Layer 2"
     style="display:inline"><path
       d="m 3.427172,3.9284502 c -0.1576955,0 -0.2670929,0.1279142 -0.2846316,0.2846316 l -0.706063,6.3089672 c -0.017539,0.156717 0.1269364,0.284631 0.2846316,0.284631 h 7.2577388 c 0.1576952,0 0.3024592,-0.127947 0.2846312,-0.284631 L 9.5456487,4.2130818 C 9.5278209,4.0563968 9.4187126,3.9284502 9.2610171,3.9284502 Z M 4.749569,4.2094045 A 0.41780062,0.41780062 0 0 1 5.167323,4.6271583 0.41780062,0.41780062 0 0 1 4.749569,5.0449123 0.41780062,0.41780062 0 0 1 4.3318152,4.6271583 0.41780062,0.41780062 0 0 1 4.749569,4.2094045 Z m 3.21038,0 A 0.41780062,0.41780062 0 0 1 8.3777029,4.6271583 0.41780062,0.41780062 0 0 1 7.959949,5.0449123 0.41780062,0.41780062 0 0 1 7.5421951,4.6271583 0.41780062,0.41780062 0 0 1 7.959949,4.2094045 Z"
       style="fill:#503c34;fill-opacity:1;stroke-width:0.376686"
       id="path3" /><path
       style="fill:none;fill-opacity:1;stroke:#503c34;stroke-width:0.365;stroke-linecap:round;stroke-linejoin:round;stroke-dasharray:none;stroke-opacity:1;paint-order:normal"
       d="m 5.4456094,4.2450027 c 0,0 0.051303,-0.7543478 0.267168,-1.1461836 0.2955909,-0.5119785 0.6365615,-0.5260902 0.864173,-0.5260902 m 1.1315378,1.6722738 c 0,0 -0.051303,-0.7543478 -0.267168,-1.1461836 C 7.1457293,2.5868406 6.8047587,2.5727289 6.5771472,2.5727289"
       id="path5"
       sodipodi:nodetypes="ccc"
       inkscape:path-effect="#path-effect5"
       inkscape:original-d="m 5.4456094,4.2450027 c 0,0 0.051303,-0.7543478 0.267168,-1.1461836 0.2955909,-0.5119785 0.6365615,-0.5260902 0.864173,-0.5260902"
       transform="matrix(1.423245,0,0,1.423245,-3.005873,-1.5085615)" /></g><g
     inkscape:groupmode="layer"
     id="layer3"
     inkscape:label="Layer 3"
     style="display:inline"><circle
       style="fill:#ea714c;fill-opacity:1;stroke:none;stroke-width:1.42324;paint-order:normal"
       id="path6"
       cx="4.3526921"
       cy="5.9254103"
       r="0.45418414" /><path
       style="fill:none;fill-opacity:1;stroke:#fae8ca;stroke-width:0.426974;stroke-linecap:round;stroke-miterlimit:4;stroke-dasharray:none;stroke-opacity:1;paint-order:normal"
       d="M 5.4706838,5.9254101 H 8.5950716"
       id="path7"
       sodipodi:nodetypes="cc" /><circle
       style="fill:#f1ae50;fill-opacity:1;stroke:none;stroke-width:1.42324;paint-order:normal"
       id="path6-7"
       cx="4.3547978"
       cy="7.3935714"
       r="0.45418414" /><path
       style="fill:none;fill-opacity:1;stroke:#f5cb9c;stroke-width:0.426974;stroke-linecap:round;stroke-miterlimit:4;stroke-dasharray:none;stroke-opacity:1;paint-order:normal"
       d="M 5.4727901,7.3935713 H 8.5971779"
       id="path7-0"
       sodipodi:nodetypes="cc" /><circle
       style="fill:#67a083;fill-opacity:1;stroke:none;stroke-width:1.42324;paint-order:normal"
       id="path6-6"
       cx="4.3453283"
       cy="8.8617325"
       r="0.45418414" /><path
       style="fill:none;fill-opacity:1;stroke:#c5d1a5;stroke-width:0.426974;stroke-linecap:round;stroke-miterlimit:4;stroke-dasharray:none;stroke-opacity:1;paint-order:normal"
       d="M 5.4633204,8.8617323 H 8.5877082"
       id="path7-2"
       sodipodi:nodetypes="cc" /></g></svg>
