<?xml version="1.0" encoding="UTF-8" standalone="no"?>
<!-- Created with Inkscape (http://www.inkscape.org/) -->

<svg
   width="48"
   height="48"
   viewBox="0 0 12.7 12.7"
   version="1.1"
   id="svg1"
   xml:space="preserve"
   inkscape:version="1.4.3 (0d15f75042, 2025-12-25)"
   sodipodi:docname="icon-maskable.svg"
   xmlns:inkscape="http://www.inkscape.org/namespaces/inkscape"
   xmlns:sodipodi="http://sodipodi.sourceforge.net/DTD/sodipodi-0.dtd"
   xmlns:xlink="http://www.w3.org/1999/xlink"
   xmlns="http://www.w3.org/2000/svg"
   xmlns:svg="http://www.w3.org/2000/svg"><sodipodi:namedview
     id="namedview1"
     pagecolor="#ffffff"
     bordercolor="#000000"
     borderopacity="0.25"
     inkscape:showpageshadow="2"
     inkscape:pageopacity="0.0"
     inkscape:pagecheckerboard="0"
     inkscape:deskcolor="#d1d1d1"
     inkscape:document-units="mm"
     inkscape:zoom="15.503104"
     inkscape:cx="7.2243597"
     inkscape:cy="28.865187"
     inkscape:window-width="2648"
     inkscape:window-height="1418"
     inkscape:window-x="0"
     inkscape:window-y="0"
     inkscape:window-maximized="1"
     inkscape:current-layer="layer3" /><defs
     id="defs1"><linearGradient
       id="linearGradient8"
       inkscape:collect="always"><stop
         style="stop-color:#f08054;stop-opacity:1;"
         offset="0"
         id="stop8" /><stop
         style="stop-color:#fbe7c9;stop-opacity:1;"
         offset="1"
         id="stop9" /></linearGradient><inkscape:path-effect
       effect="mirror_symmetry"
       start_point="6.5770488,4.2640746"
       end_point="6.5770488,2.575309"
       center_point="6.5770488,3.4196918"
       id="path-effect5"
       is_visible="true"
       lpeversion="1.2"
       lpesatellites=""
       mode="free"
       discard_orig_path="false"
       fuse_paths="false"
       oposite_fuse="false"
       split_items="false"
       split_open="false"
       link_styles="false" /><linearGradient
       inkscape:collect="always"
       xlink:href="#linearGradient8"
       id="linearGradient9"
       x1="1.5889814"
       y1="1.5475636"
       x2="11.101042"
       y2="11.059624"
       gradientUnits="userSpaceOnUse" /></defs><g
     inkscape:groupmode="layer"
     id="layer5"
     inkscape:label="Layer 4"><rect
       style="fill:url(#linearGradient9);fill-opacity:1;stroke:none;stroke-width:0.3;stroke-linecap:round;stroke-miterlimit:4;stroke-dasharray:none;stroke-opacity:1;paint-order:normal"
       id="rect7"
       width="13.452087"
       height="13.402387"
       x="-0.38103202"
       y="-0.39759862"
       rx="0.2" /></g><g
     inkscape:groupmode="layer"
     id="layer2"
     inkscape:label="Layer 2"
     style="display:inline"><path
       d="m 4.3449751,4.6888459 c -0.1081773,0 -0.1832226,0.087748 -0.1952539,0.1952539 L 3.6653704,9.2119762 c -0.012031,0.107506 0.087077,0.195253 0.1952539,0.195253 h 4.9787219 c 0.108177,0 0.2074834,-0.08777 0.1952536,-0.195253 L 8.5421768,4.8840998 C 8.5299471,4.7766158 8.4551002,4.6888459 8.3469229,4.6888459 Z M 5.2521236,4.8815772 A 0.28660622,0.28660622 0 0 1 5.5386978,5.1681513 0.28660622,0.28660622 0 0 1 5.2521236,5.4547256 0.28660622,0.28660622 0 0 1 4.9655495,5.1681513 0.28660622,0.28660622 0 0 1 5.2521236,4.8815772 Z m 2.2022822,0 A 0.28660622,0.28660622 0 0 1 7.74098,5.1681513 0.28660622,0.28660622 0 0 1 7.4544058,5.4547256 0.28660622,0.28660622 0 0 1 7.1678316,5.1681513 0.28660622,0.28660622 0 0 1 7.4544058,4.8815772 Z"
       style="fill:#503c34;fill-opacity:1;stroke-width:0.258402"
       id="path3" /><path
       style="fill:none;fill-opacity:1;stroke:#503c34;stroke-width:0.365;stroke-linecap:round;stroke-linejoin:round;stroke-dasharray:none;stroke-opacity:1;paint-order:normal"
       d="m 5.4456094,4.2450027 c 0,0 0.051303,-0.7543478 0.267168,-1.1461836 0.2955909,-0.5119785 0.6365615,-0.5260902 0.864173,-0.5260902 m 1.1315378,1.6722738 c 0,0 -0.051303,-0.7543478 -0.267168,-1.1461836 C 7.1457293,2.5868406 6.8047587,2.5727289 6.5771472,2.5727289"
       id="path5"
       sodipodi:nodetypes="ccc"
       inkscape:path-effect="#path-effect5"
       inkscape:original-d="m 5.4456094,4.2450027 c 0,0 0.051303,-0.7543478 0.267168,-1.1461836 0.2955909,-0.5119785 0.6365615,-0.5260902 0.864173,-0.5260902"
       transform="matrix(0.97632902,0,0,0.97632902,-0.06801666,0.95912098)" /></g><g
     inkscape:groupmode="layer"
     id="layer3"
     inkscape:label="Layer 3"
     style="display:inline"><circle
       style="fill:#ea714c;fill-opacity:1;stroke:none;stroke-width:0.976326;paint-order:normal"
       id="path6"
       cx="4.9798708"
       cy="6.0587368"
       r="0.31156489" /><path
       style="fill:none;fill-opacity:1;stroke:#fae8ca;stroke-width:0.292899;stroke-linecap:round;stroke-miterlimit:4;stroke-dasharray:none;stroke-opacity:1;paint-order:normal"
       d="M 5.7467997,6.0587365 H 7.8900923"
       id="path7"
       sodipodi:nodetypes="cc" /><circle
       style="fill:#f1ae50;fill-opacity:1;stroke:none;stroke-width:0.976326;paint-order:normal"
       id="path6-7"
       cx="4.9813151"
       cy="7.0658774"
       r="0.31156489" /><path
       style="fill:none;fill-opacity:1;stroke:#f5cb9c;stroke-width:0.292899;stroke-linecap:round;stroke-miterlimit:4;stroke-dasharray:none;stroke-opacity:1;paint-order:normal"
       d="M 5.7482446,7.0658775 H 7.8915372"
       id="path7-0"
       sodipodi:nodetypes="cc" /><circle
       style="fill:#67a083;fill-opacity:1;stroke:none;stroke-width:0.976326;paint-order:normal"
       id="path6-6"
       cx="4.9748192"
       cy="8.0730181"
       r="0.31156489" /><path
       style="fill:none;fill-opacity:1;stroke:#c5d1a5;stroke-width:0.292899;stroke-linecap:round;stroke-miterlimit:4;stroke-dasharray:none;stroke-opacity:1;paint-order:normal"
       d="M 5.7417485,8.0730184 H 7.8850411"
       id="path7-2"
       sodipodi:nodetypes="cc" /></g></svg>
